<svg xmlns="http://www.w3.org/2000/svg" viewBox="0 0 512 512">
  <rect width="512" height="512" rx="96" fill="#4338ca"/>
  <g transform="translate(256,256)">
    <!-- Book -->
    <path d="M-120,60 L-120,-80 Q-120,-100 -100,-100 L-20,-100 Q0,-100 0,-80 L0,60 Q0,80 -20,80 L-100,80 Q-120,80 -120,60 Z" fill="#818cf8" opacity="0.9"/>
    <path d="M0,-80 L0,60 Q0,80 20,80 L100,80 Q120,80 120,60 L120,-80 Q120,-100 100,-100 L20,-100 Q0,-100 0,-80 Z" fill="#a5b4fc" opacity="0.9"/>
    <line x1="0" y1="-90" x2="0" y2="70" stroke="#4338ca" stroke-width="4"/>
    <!-- Lines on pages -->
    <line x1="-90" y1="-60" x2="-30" y2="-60" stroke="#4338ca" stroke-width="3" stroke-linecap="round"/>
    <line x1="-90" y1="-35" x2="-40" y2="-35" stroke="#4338ca" stroke-width="3" stroke-linecap="round"/>
    <line x1="-90" y1="-10" x2="-35" y2="-10" stroke="#4338ca" stroke-width="3" stroke-linecap="round"/>
    <line x1="30" y1="-60" x2="90" y2="-60" stroke="#4338ca" stroke-width="3" stroke-linecap="round"/>
    <line x1="40" y1="-35" x2="90" y2="-35" stroke="#4338ca" stroke-width="3" stroke-linecap="round"/>
    <line x1="35" y1="-10" x2="90" y2="-10" stroke="#4338ca" stroke-width="3" stroke-linecap="round"/>
    <!-- Star/sparkle -->
    <path d="M70,-140 L78,-120 L100,-118 L82,-104 L88,-82 L70,-96 L52,-82 L58,-104 L40,-118 L62,-120 Z" fill="#fbbf24"/>
    <!-- Bot antenna -->
    <circle cx="-60" cy="-130" r="8" fill="#34d399"/>
    <line x1="-60" y1="-122" x2="-60" y2="-100" stroke="#34d399" stroke-width="3"/>
  </g>
  <text x="256" y="440" text-anchor="middle" font-family="system-ui,sans-serif" font-weight="800" font-size="72" fill="white">StudyBot</text>
</svg>
